ffmpeg started on 2025-06-23 at 21:05:26
Report written to "D:\Convert\FFMetrics\reports\psnr_report-6.txt"
Log level: 32
Command line:
ffmpeg -hide_banner -nostdin -i "G:\\\xc0\xed\xe8\xec\xe5\\[\xd2\xee\xef-4]\\\xcc\xee\xe6\xe5\xf2, \xff \xe2\xf1\xf2\xf0\xe5\xf7\xf3 \xf2\xe5\xe1\xff \xe2 \xef\xee\xe4\xe7\xe5\xec\xe5\xeb\xfc\xe5\\\xd2\xc2-2\\Danmachi_Sword_Oratoria_[06]_[AniLibria_TV]_[HDTV-Rip]_HEVC.mkv" -i "G:\\\xc0\xed\xe8\xec\xe5\\[\xd2\xee\xef-4]\\\xcc\xee\xe6\xe5\xf2, \xff \xe2\xf1\xf2\xf0\xe5\xf7\xf3 \xf2\xe5\xe1\xff \xe2 \xef\xee\xe4\xe7\xe5\xec\xe5\xeb\xfc\xe5\\\xd2\xc2-2\\Danmachi_Sword_Oratoria_[06]_[AniLibria_TV]_[HDTV-Rip].mkv" -lavfi "[0:v]settb=AVTB,setpts=PTS-STARTPTS,format=pix_fmts=yuv420p10,fps=24000/1001,scale=1280:720:flags=bicubic[main];[1:v]settb=AVTB,setpts=PTS-STARTPTS,format=pix_fmts=yuv420p,fps=24000/1001,scale=1280:720:flags=bicubic[ref];[main][ref]psnr=eof_action=endall:stats_file='D\\:/Convert/FFMetrics/logs/psnr_logfile-6.txt'" -f null -
Input #0, matroska,webm, from 'G:\Аниме\[Топ-4]\Может, я встречу тебя в подземелье\ТВ-2\Danmachi_Sword_Oratoria_[06]_[AniLibria_TV]_[HDTV-Rip]_HEVC.mkv':
  Metadata:
    ENCODER         : Lavf61.7.100
  Duration: 00:23:59.69, start: -0.021000, bitrate: 772 kb/s
  Chapters:
    Chapter #0:0: start 0.000000, end 29.000000
      Metadata:
        title           : Part A
    Chapter #0:1: start 29.000000, end 119.000000
      Metadata:
        title           : OP
    Chapter #0:2: start 119.000000, end 718.000000
      Metadata:
        title           : Part B
    Chapter #0:3: start 718.000000, end 1425.000000
      Metadata:
        title           : Part C
    Chapter #0:4: start 1335.000000, end 1425.000000
      Metadata:
        title           : ED
    Chapter #0:5: start 1425.000000, end 1439.000000
      Metadata:
        title           : Preview
  Stream #0:0(jpn): Video: hevc (Main 10), yuv420p10le(tv, bt709, progressive), 1280x720 [SAR 1:1 DAR 16:9], 23.98 fps, 23.98 tbr, 1k tbn (default) (forced)
      Metadata:
        title           : [Leopard-Raws]
        ENCODER         : Lavc61.19.100 libx265
        BPS             : 573907
        DURATION        : 00:23:59.688708333
        NUMBER_OF_FRAMES: 34518
        NUMBER_OF_BYTES : 103280922
        _STATISTICS_WRITING_APP: mkvpropedit v66.0.0 ('Josie') 64-bit
        _STATISTICS_WRITING_DATE_UTC: 2025-06-23 10:43:44
        _STATISTICS_TAGS: BPS DURATION NUMBER_OF_FRAMES NUMBER_OF_BYTES
  Stream #0:1(rus): Audio: aac (LC), 48000 Hz, stereo, fltp (default) (forced)
      Metadata:
        title           : LeeAnnushka
        ENCODER         : Lavc61.19.100 aac
        BPS             : 194107
        DURATION        : 00:23:59.658000000
        NUMBER_OF_FRAMES: 67485
        NUMBER_OF_BYTES : 34931068
        _STATISTICS_WRITING_APP: mkvpropedit v66.0.0 ('Josie') 64-bit
        _STATISTICS_WRITING_DATE_UTC: 2025-06-23 10:43:44
        _STATISTICS_TAGS: BPS DURATION NUMBER_OF_FRAMES NUMBER_OF_BYTES
  Stream #0:2(rus): Subtitle: ass (ssa) (default) (forced)
      Metadata:
        title           : Надписи
        BPS             : 65
        DURATION        : 00:23:08.990000000
        NUMBER_OF_FRAMES: 37
        NUMBER_OF_BYTES : 11438
        _STATISTICS_WRITING_APP: mkvpropedit v66.0.0 ('Josie') 64-bit
        _STATISTICS_WRITING_DATE_UTC: 2025-06-23 10:43:44
        _STATISTICS_TAGS: BPS DURATION NUMBER_OF_FRAMES NUMBER_OF_BYTES
  Stream #0:3(rus): Subtitle: ass (ssa)
      Metadata:
        title           : Полные
        BPS             : 173
        DURATION        : 00:23:41.660000000
        NUMBER_OF_FRAMES: 289
        NUMBER_OF_BYTES : 30765
        _STATISTICS_WRITING_APP: mkvpropedit v66.0.0 ('Josie') 64-bit
        _STATISTICS_WRITING_DATE_UTC: 2025-06-23 10:43:44
        _STATISTICS_TAGS: BPS DURATION NUMBER_OF_FRAMES NUMBER_OF_BYTES
Input #1, matroska,webm, from 'G:\Аниме\[Топ-4]\Может, я встречу тебя в подземелье\ТВ-2\Danmachi_Sword_Oratoria_[06]_[AniLibria_TV]_[HDTV-Rip].mkv':
  Metadata:
    encoder         : libebml v1.4.2 + libmatroska v1.6.4
    creation_time   : 2025-01-14T16:51:47.000000Z
  Duration: 00:23:59.69, start: 0.000000, bitrate: 2768 kb/s
  Chapters:
    Chapter #1:0: start 0.000000, end 29.000000
      Metadata:
        title           : Part A
    Chapter #1:1: start 29.000000, end 119.000000
      Metadata:
        title           : OP
    Chapter #1:2: start 119.000000, end 718.000000
      Metadata:
        title           : Part B
    Chapter #1:3: start 718.000000, end 1425.000000
      Metadata:
        title           : Part C
    Chapter #1:4: start 1335.000000, end 1425.000000
      Metadata:
        title           : ED
    Chapter #1:5: start 1425.000000, end 1439.000000
      Metadata:
        title           : Preview
  Stream #1:0(jpn): Video: h264 (High), yuv420p(tv, bt709, progressive), 1280x720 [SAR 1:1 DAR 16:9], 23.98 fps, 23.98 tbr, 1k tbn (default) (forced)
      Metadata:
        title           : [Leopard-Raws]
        BPS             : 2571266
        DURATION        : 00:23:59.689000000
        NUMBER_OF_FRAMES: 34518
        NUMBER_OF_BYTES : 462727929
        _STATISTICS_WRITING_APP: mkvmerge v66.0.0 ('Josie') 64-bit
        _STATISTICS_WRITING_DATE_UTC: 2025-01-14 16:51:47
        _STATISTICS_TAGS: BPS DURATION NUMBER_OF_FRAMES NUMBER_OF_BYTES
  Stream #1:1(rus): Audio: aac (LC), 48000 Hz, stereo, fltp (default) (forced)
      Metadata:
        title           : LeeAnnushka
        BPS             : 192093
        DURATION        : 00:23:59.658000000
        NUMBER_OF_FRAMES: 67484
        NUMBER_OF_BYTES : 34568681
        _STATISTICS_WRITING_APP: mkvmerge v66.0.0 ('Josie') 64-bit
        _STATISTICS_WRITING_DATE_UTC: 2025-01-14 16:51:47
        _STATISTICS_TAGS: BPS DURATION NUMBER_OF_FRAMES NUMBER_OF_BYTES
  Stream #1:2(rus): Subtitle: ass (ssa) (default) (forced)
      Metadata:
        title           : Надписи
        BPS             : 65
        DURATION        : 00:23:08.990000000
        NUMBER_OF_FRAMES: 37
        NUMBER_OF_BYTES : 11438
        _STATISTICS_WRITING_APP: mkvmerge v66.0.0 ('Josie') 64-bit
        _STATISTICS_WRITING_DATE_UTC: 2025-01-14 16:51:47
        _STATISTICS_TAGS: BPS DURATION NUMBER_OF_FRAMES NUMBER_OF_BYTES
  Stream #1:3(rus): Subtitle: ass (ssa)
      Metadata:
        title           : Полные
        BPS             : 173
        DURATION        : 00:23:41.660000000
        NUMBER_OF_FRAMES: 289
        NUMBER_OF_BYTES : 30765
        _STATISTICS_WRITING_APP: mkvmerge v66.0.0 ('Josie') 64-bit
        _STATISTICS_WRITING_DATE_UTC: 2025-01-14 16:51:47
        _STATISTICS_TAGS: BPS DURATION NUMBER_OF_FRAMES NUMBER_OF_BYTES
  Stream #1:4: Attachment: ttf
      Metadata:
        filename        : 9808.ttf
        mimetype        : application/x-truetype-font
  Stream #1:5: Attachment: ttf
      Metadata:
        filename        : 10119.ttf
        mimetype        : application/x-truetype-font
  Stream #1:6: Attachment: ttf
      Metadata:
        filename        : 10323.ttf
        mimetype        : application/x-truetype-font
Stream mapping:
  Stream #0:0 (hevc) -> settb:default
  Stream #1:0 (h264) -> settb:default
  psnr:default -> Stream #0:0 (wrapped_avframe)
  Stream #0:1 -> #0:1 (aac (native) -> pcm_s16le (native))
Output #0, null, to 'pipe:':
  Metadata:
    encoder         : Lavf61.7.100
  Chapters:
    Chapter #0:0: start 0.021000, end 29.021000
      Metadata:
        title           : Part A
    Chapter #0:1: start 29.021000, end 119.021000
      Metadata:
        title           : OP
    Chapter #0:2: start 119.021000, end 718.021000
      Metadata:
        title           : Part B
    Chapter #0:3: start 718.021000, end 1425.021000
      Metadata:
        title           : Part C
    Chapter #0:4: start 1335.021000, end 1425.021000
      Metadata:
        title           : ED
    Chapter #0:5: start 1425.021000, end 1439.021000
      Metadata:
        title           : Preview
  Stream #0:0: Video: wrapped_avframe, yuv420p10le(tv, bt709, progressive), 1280x720 [SAR 1:1 DAR 16:9], q=2-31, 200 kb/s, 23.98 fps, 23.98 tbn
      Metadata:
        encoder         : Lavc61.19.100 wrapped_avframe
  Stream #0:1(rus): Audio: pcm_s16le, 48000 Hz, stereo, s16, 1536 kb/s (default) (forced)
      Metadata:
        title           : LeeAnnushka
        _STATISTICS_TAGS: BPS DURATION NUMBER_OF_FRAMES NUMBER_OF_BYTES
        BPS             : 194107
        DURATION        : 00:23:59.658000000
        NUMBER_OF_FRAMES: 67485
        NUMBER_OF_BYTES : 34931068
        _STATISTICS_WRITING_APP: mkvpropedit v66.0.0 ('Josie') 64-bit
        _STATISTICS_WRITING_DATE_UTC: 2025-06-23 10:43:44
        encoder         : Lavc61.19.100 pcm_s16le
frame=  448 fps=0.0 q=-0.0 size=N/A time=00:00:18.68 bitrate=N/A speed=  36x    frame=  911 fps=873 q=-0.0 size=N/A time=00:00:37.99 bitrate=N/A speed=36.4x    frame= 1308 fps=844 q=-0.0 size=N/A time=00:00:54.55 bitrate=N/A speed=35.2x    frame= 1678 fps=810 q=-0.0 size=N/A time=00:01:09.98 bitrate=N/A speed=33.8x    frame= 2091 fps=810 q=-0.0 size=N/A time=00:01:27.21 bitrate=N/A speed=33.8x    frame= 2485 fps=801 q=-0.0 size=N/A time=00:01:43.64 bitrate=N/A speed=33.4x    frame= 2767 fps=766 q=-0.0 size=N/A time=00:01:55.40 bitrate=N/A speed=31.9x    frame= 3237 fps=783 q=-0.0 size=N/A time=00:02:15.00 bitrate=N/A speed=32.7x    frame= 3571 fps=769 q=-0.0 size=N/A time=00:02:28.94 bitrate=N/A speed=32.1x    frame= 3938 fps=762 q=-0.0 size=N/A time=00:02:44.24 bitrate=N/A speed=31.8x    frame= 4386 fps=772 q=-0.0 size=N/A time=00:03:02.93 bitrate=N/A speed=32.2x    frame= 4787 fps=773 q=-0.0 size=N/A time=00:03:19.65 bitrate=N/A speed=32.2x    frame= 5248 fps=781 q=-0.0 size=N/A time=00:03:38.88 bitrate=N/A speed=32.6x    frame= 5654 fps=782 q=-0.0 size=N/A time=00:03:55.81 bitrate=N/A speed=32.6x    frame= 6087 fps=787 q=-0.0 size=N/A time=00:04:13.87 bitrate=N/A speed=32.8x    frame= 6621 fps=801 q=-0.0 size=N/A time=00:04:36.15 bitrate=N/A speed=33.4x    frame= 7006 fps=798 q=-0.0 size=N/A time=00:04:52.20 bitrate=N/A speed=33.3x    frame= 7396 fps=797 q=-0.0 size=N/A time=00:05:08.47 bitrate=N/A speed=33.2x    frame= 7829 fps=798 q=-0.0 size=N/A time=00:05:26.53 bitrate=N/A speed=33.3x    frame= 8243 fps=798 q=-0.0 size=N/A time=00:05:43.80 bitrate=N/A speed=33.3x    frame= 8677 fps=799 q=-0.0 size=N/A time=00:06:01.90 bitrate=N/A speed=33.3x    frame= 9230 fps=812 q=-0.0 size=N/A time=00:06:24.96 bitrate=N/A speed=33.9x    frame= 9749 fps=820 q=-0.0 size=N/A time=00:06:46.61 bitrate=N/A speed=34.2x    frame=10202 fps=823 q=-0.0 size=N/A time=00:07:05.50 bitrate=N/A speed=34.3x    frame=10855 fps=840 q=-0.0 size=N/A time=00:07:32.74 bitrate=N/A speed=  35x    frame=11465 fps=854 q=-0.0 size=N/A time=00:07:58.18 bitrate=N/A speed=35.6x    frame=12060 fps=865 q=-0.0 size=N/A time=00:08:23.00 bitrate=N/A speed=36.1x    frame=12678 fps=877 q=-0.0 size=N/A time=00:08:48.77 bitrate=N/A speed=36.6x    frame=13239 fps=884 q=-0.0 size=N/A time=00:09:12.17 bitrate=N/A speed=36.9x    frame=13767 fps=889 q=-0.0 size=N/A time=00:09:34.19 bitrate=N/A speed=37.1x    frame=14363 fps=898 q=-0.0 size=N/A time=00:09:59.05 bitrate=N/A speed=37.4x    frame=14981 fps=907 q=-0.0 size=N/A time=00:10:24.83 bitrate=N/A speed=37.8x    frame=15586 fps=914 q=-0.0 size=N/A time=00:10:50.06 bitrate=N/A speed=38.1x    frame=16236 fps=925 q=-0.0 size=N/A time=00:11:17.17 bitrate=N/A speed=38.6x    frame=16843 fps=932 q=-0.0 size=N/A time=00:11:42.49 bitrate=N/A speed=38.9x    frame=17415 fps=937 q=-0.0 size=N/A time=00:12:06.35 bitrate=N/A speed=39.1x    frame=17815 fps=933 q=-0.0 size=N/A time=00:12:23.03 bitrate=N/A speed=38.9x    frame=18408 fps=939 q=-0.0 size=N/A time=00:12:47.76 bitrate=N/A speed=39.1x    frame=19082 fps=948 q=-0.0 size=N/A time=00:13:15.87 bitrate=N/A speed=39.5x    frame=19697 fps=954 q=-0.0 size=N/A time=00:13:41.52 bitrate=N/A speed=39.8x    frame=20336 fps=961 q=-0.0 size=N/A time=00:14:08.18 bitrate=N/A speed=40.1x    frame=20836 fps=961 q=-0.0 size=N/A time=00:14:29.03 bitrate=N/A speed=40.1x    frame=21476 fps=967 q=-0.0 size=N/A time=00:14:55.72 bitrate=N/A speed=40.3x    frame=22079 fps=972 q=-0.0 size=N/A time=00:15:20.87 bitrate=N/A speed=40.5x    frame=22574 fps=972 q=-0.0 size=N/A time=00:15:41.52 bitrate=N/A speed=40.5x    frame=23106 fps=973 q=-0.0 size=N/A time=00:16:03.71 bitrate=N/A speed=40.6x    frame=23708 fps=977 q=-0.0 size=N/A time=00:16:28.82 bitrate=N/A speed=40.8x    frame=24223 fps=978 q=-0.0 size=N/A time=00:16:50.30 bitrate=N/A speed=40.8x    frame=24749 fps=978 q=-0.0 size=N/A time=00:17:12.23 bitrate=N/A speed=40.8x    frame=25355 fps=983 q=-0.0 size=N/A time=00:17:37.51 bitrate=N/A speed=  41x    frame=26029 fps=989 q=-0.0 size=N/A time=00:18:05.62 bitrate=N/A speed=41.2x    frame=26669 fps=994 q=-0.0 size=N/A time=00:18:32.31 bitrate=N/A speed=41.5x    frame=27254 fps=997 q=-0.0 size=N/A time=00:18:56.71 bitrate=N/A speed=41.6x    frame=27910 fps=1001 q=-0.0 size=N/A time=00:19:24.07 bitrate=N/A speed=41.8x    frame=28542 fps=1006 q=-0.0 size=N/A time=00:19:50.43 bitrate=N/A speed=41.9x    frame=29118 fps=1008 q=-0.0 size=N/A time=00:20:14.46 bitrate=N/A speed=  42x    frame=29534 fps=1004 q=-0.0 size=N/A time=00:20:31.81 bitrate=N/A speed=41.9x    frame=29996 fps=1002 q=-0.0 size=N/A time=00:20:51.08 bitrate=N/A speed=41.8x    frame=30470 fps=1001 q=-0.0 size=N/A time=00:21:10.85 bitrate=N/A speed=41.7x    frame=30993 fps=1001 q=-0.0 size=N/A time=00:21:32.66 bitrate=N/A speed=41.8x    frame=31513 fps=1001 q=-0.0 size=N/A time=00:21:54.35 bitrate=N/A speed=41.8x    frame=32039 fps=1002 q=-0.0 size=N/A time=00:22:16.29 bitrate=N/A speed=41.8x    frame=32583 fps=1002 q=-0.0 size=N/A time=00:22:38.98 bitrate=N/A speed=41.8x    frame=33069 fps=1001 q=-0.0 size=N/A time=00:22:59.25 bitrate=N/A speed=41.8x    frame=33539 fps=1000 q=-0.0 size=N/A time=00:23:18.85 bitrate=N/A speed=41.7x    frame=34071 fps=1001 q=-0.0 size=N/A time=00:23:41.04 bitrate=N/A speed=41.7x    [Parsed_psnr_10 @ 000001ad448336c0] PSNR y:46.750282 u:49.847542 v:50.105219 average:47.584038 min:39.678142 max:61.051818
[out#0/null @ 000001ad38934ec0] video:14832KiB audio:269940KiB subtitle:0KiB other streams:0KiB global headers:0KiB muxing overhead: unknown
frame=34518 fps=1000 q=-0.0 Lsize=N/A time=00:23:59.67 bitrate=N/A speed=41.7x    
